<?xml version="1.0" encoding="utf-8"?>
<svg version="1.1" width="150px" height="150px" style="shape-rendering:geometricPrecision; text-rendering:geometricPrecision; image-rendering:optimizeQuality; fill-rule:evenodd; clip-rule:evenodd" xmlns="http://www.w3.org/2000/svg">
  <defs/>
  <g transform="matrix(1, 0, 0, 1, 1.354875, -0.812511)">
    <path style="opacity: 1; fill: rgb(250, 250, 250);" d="M 64.5 24.5 C 66.287 23.965 67.996 23.799 69.517 23.5 C 92.583 22.791 109.4 32.791 120 53.5 C 121.156 57.123 122.156 60.789 123 64.5 C 123.667 78.833 123.667 93.167 123 107.5 C 120.833 115 116 119.833 108.5 122 C 96.825 122.334 84.991 122.005 73.381 122.134 C 61.994 122.31 50.926 122.639 39.5 122 C 33.159 120.325 28.659 116.492 26 110.5 C 24.382 95.235 24.048 79.901 25 64.5 C 29.945 42.87 43.112 29.537 64.5 24.5 Z M 81.5 32.5 C 82.167 33.167 82.833 33.833 83.5 34.5 C 64.962 43.232 56.462 57.899 58 78.5 C 60.169 87.835 66.002 93.169 75.5 94.5 C 88.735 95.184 102.068 95.85 115.5 96.5 C 116.453 105.46 112.786 111.293 104.5 114 C 84.777 114.361 65.11 114.528 45.5 114.5 C 41.179 113.923 37.679 111.923 35 108.5 C 33.369 94.594 33.036 80.594 34 66.5 C 40.494 42.321 56.328 30.987 81.5 32.5 Z M 94.5 37.5 C 112.237 50.19 118.904 67.356 114.5 89 C 102.167 89.667 89.833 89.667 77.5 89 C 70.706 87.854 66.206 84.021 64 77.5 C 63.534 55.826 73.701 42.492 94.5 37.5 Z"/>
  </g>
  <g>
    <path style="opacity:0.024" fill="#2f5e54" d="M 101.5,50.5 C 100.005,50.5852 99.0047,49.9185 98.5,48.5C 100.396,47.3606 101.396,48.0272 101.5,50.5 Z"/>
  </g>
  <g>
    <path style="opacity: 0.908; fill: rgb(79, 248, 210);" d="M 73.5,55.5 C 92.1667,62.8333 92.1667,70.1667 73.5,77.5C 73.3379,75.4727 73.5045,73.4727 74,71.5C 76.7581,70.2054 79.2581,68.5388 81.5,66.5C 78.914,64.9574 76.414,63.2907 74,61.5C 73.5045,59.5273 73.3379,57.5273 73.5,55.5 Z"/>
  </g>
  <g>
    <path style="opacity:0.004" fill="#215e5e" d="M 105.5,56.5 C 107.085,57.0024 107.585,58.0024 107,59.5C 105.961,58.7562 105.461,57.7562 105.5,56.5 Z"/>
  </g>
  <g>
    <path style="opacity: 0.915; fill: rgb(79, 248, 210);" d="M 109.888 70.835 C 110.101 74.94 109.953 71.202 110.143 76.071 C 105.143 76.071 100.143 76.071 95.143 76.071 C 95.143 74.405 95.143 72.738 95.143 71.071 C 99.157 71.237 103.04 71.08 107.007 70.912 C 109.468 70.808 108.992 70.85 109.888 70.835 Z"/>
  </g>
  <g transform="matrix(1, 0, 0, 1, 106.739639, 4.067385)">
    <path style="opacity: 1; fill: rgb(250, 250, 250);" d="M -57.614 81.658 C -49.889 81.386 -45.556 85.053 -44.614 92.658 C -45.213 99.757 -49.046 104.858 -56.056 104.426 C -66.663 102.922 -69.025 96.169 -65.114 86.658 C -62.944 84.335 -60.444 82.668 -57.614 81.658 Z M -55.049 87.6 C -58.194 88.054 -59.129 89.344 -60.114 90.658 C -61.107 96.66 -58.781 99 -52.788 97.332 C -48.896 93.351 -49.939 89.779 -55.049 87.6 Z"/>
  </g>
</svg>